<?xml version="1.0" encoding="utf-8"?>
<!-- Generator: Adobe Illustrator 24.1.2, SVG Export Plug-In . SVG Version: 6.00 Build 0)  -->
<svg version="1.1" id="Layer_1" xmlns="http://www.w3.org/2000/svg" xmlns:xlink="http://www.w3.org/1999/xlink" x="0px" y="0px"
	 viewBox="0 0 206 200" style="enable-background:new 0 0 206 200;" xml:space="preserve">
<style type="text/css">
	.st0{fill:#F8F1E8;}
	.st1{fill:#625F66;}
	.st2{fill:#FF7368;}
	.st3{fill:#F8F1E8;stroke:#FF7368;stroke-width:2;stroke-miterlimit:10;}
	.st4{fill:#6B6B6B;stroke:#FF7368;stroke-width:2;stroke-miterlimit:10;}
	.st5{fill:#F8F1E8;stroke:#FF7368;stroke-width:11;stroke-miterlimit:10;}
</style>
<g>
	<circle class="st2" cx="103.66" cy="99.34" r="95.37"/>
	<path class="st0" d="M86.21,149.64c42.29,0,65.42-35.04,65.42-65.42c0-1-0.02-1.99-0.07-2.97c4.49-3.25,8.39-7.29,11.47-11.9
		c-4.12,1.83-8.55,3.06-13.2,3.62c4.75-2.85,8.39-7.35,10.11-12.72c-4.44,2.63-9.36,4.55-14.6,5.58c-4.2-4.47-10.17-7.26-16.78-7.26
		c-12.7,0-22.99,10.3-22.99,22.99c0,1.8,0.2,3.56,0.6,5.24c-19.11-0.96-36.05-10.11-47.39-24.02c-1.98,3.4-3.11,7.34-3.11,11.56
		c0,7.98,4.06,15.02,10.23,19.14c-3.77-0.12-7.31-1.15-10.41-2.88c-0.01,0.1-0.01,0.19-0.01,0.29c0,11.14,7.93,20.43,18.45,22.54
		c-1.93,0.53-3.96,0.81-6.06,0.81c-1.48,0-2.92-0.15-4.32-0.41c2.93,9.13,11.41,15.78,21.48,15.97c-7.87,6.17-17.78,9.84-28.56,9.84
		c-1.86,0-3.69-0.11-5.48-0.32C61.14,145.84,73.23,149.64,86.21,149.64"/>
</g>
</svg>
