<?xml version="1.0" encoding="utf-8"?>
<!-- Generator: Adobe Illustrator 24.1.2, SVG Export Plug-In . SVG Version: 6.00 Build 0)  -->
<svg version="1.1" id="Layer_1" xmlns="http://www.w3.org/2000/svg" xmlns:xlink="http://www.w3.org/1999/xlink" x="0px" y="0px"
	 viewBox="0 0 206 200" style="enable-background:new 0 0 206 200;" xml:space="preserve">
<style type="text/css">
	.st0{fill:#F8F1E8;}
	.st1{fill:#625F66;}
	.st2{fill:#FF7368;}
	.st3{fill:#F8F1E8;stroke:#FF7368;stroke-width:2;stroke-miterlimit:10;}
	.st4{fill:#6B6B6B;stroke:#FF7368;stroke-width:2;stroke-miterlimit:10;}
	.st5{fill:#F8F1E8;stroke:#FF7368;stroke-width:11;stroke-miterlimit:10;}
</style>
<g>
	<path class="st2" d="M102.38,22.65c25.1,0,28.07,0.1,37.99,0.55c9.17,0.42,14.14,1.95,17.46,3.24c4.39,1.71,7.52,3.74,10.81,7.03
		c3.29,3.29,5.33,6.42,7.03,10.81c1.29,3.31,2.82,8.29,3.24,17.46c0.45,9.91,0.55,12.89,0.55,37.99s-0.1,28.07-0.55,37.99
		c-0.42,9.17-1.95,14.14-3.24,17.46c-1.71,4.39-3.74,7.52-7.03,10.81c-3.29,3.29-6.42,5.33-10.81,7.03
		c-3.31,1.29-8.29,2.82-17.46,3.24c-9.91,0.45-12.88,0.55-37.99,0.55s-28.07-0.1-37.99-0.55c-9.17-0.42-14.14-1.95-17.46-3.24
		c-4.39-1.71-7.52-3.74-10.81-7.03c-3.29-3.29-5.33-6.42-7.03-10.81c-1.29-3.31-2.82-8.29-3.24-17.46
		c-0.45-9.91-0.55-12.89-0.55-37.99s0.1-28.07,0.55-37.99c0.42-9.17,1.95-14.14,3.24-17.46c1.71-4.39,3.74-7.52,7.03-10.81
		c3.29-3.29,6.42-5.33,10.81-7.03c3.31-1.29,8.29-2.82,17.46-3.24C74.31,22.75,77.28,22.65,102.38,22.65 M102.38,5.71
		c-25.53,0-28.73,0.11-38.76,0.57C53.61,6.73,46.78,8.32,40.8,10.65c-6.18,2.4-11.42,5.62-16.65,10.84
		c-5.23,5.23-8.44,10.47-10.84,16.65c-2.32,5.98-3.91,12.81-4.37,22.82C8.48,70.99,8.37,74.19,8.37,99.72
		c0,25.53,0.11,28.73,0.57,38.76c0.46,10.01,2.05,16.84,4.37,22.82c2.4,6.18,5.62,11.42,10.84,16.65
		c5.23,5.23,10.47,8.44,16.65,10.84c5.98,2.32,12.81,3.91,22.82,4.37c10.03,0.46,13.23,0.57,38.76,0.57s28.73-0.11,38.76-0.57
		c10.01-0.46,16.84-2.05,22.82-4.37c6.18-2.4,11.42-5.62,16.65-10.84c5.23-5.23,8.44-10.47,10.84-16.65
		c2.32-5.98,3.91-12.81,4.37-22.82c0.46-10.03,0.57-13.23,0.57-38.76s-0.11-28.73-0.57-38.76c-0.46-10.01-2.05-16.84-4.37-22.82
		c-2.4-6.18-5.62-11.42-10.84-16.65c-5.23-5.23-10.47-8.44-16.65-10.84c-5.98-2.32-12.81-3.91-22.82-4.37
		C131.11,5.82,127.91,5.71,102.38,5.71L102.38,5.71z"/>
	<path class="st2" d="M102.38,51.44c-26.66,0-48.27,21.61-48.27,48.27s21.61,48.27,48.27,48.27s48.27-21.61,48.27-48.27
		S129.04,51.44,102.38,51.44z M102.38,131.05c-17.31,0-31.33-14.03-31.33-31.33c0-17.31,14.03-31.33,31.33-31.33
		c17.31,0,31.33,14.03,31.33,31.33C133.71,117.02,119.68,131.05,102.38,131.05z"/>
	<circle class="st2" cx="152.56" cy="49.54" r="11.28"/>
</g>
</svg>
